<svg xmlns="http://www.w3.org/2000/svg" viewBox="120 -20 820 780" role="img" aria-label="Divertiflix">
<defs>
  <linearGradient id="ibody" x1="170" y1="20" x2="880" y2="720" gradientUnits="userSpaceOnUse">
    <stop offset="0" stop-color="#4a3cf2"/><stop offset=".38" stop-color="#8a3fee"/><stop offset=".72" stop-color="#e440a4"/><stop offset="1" stop-color="#ff6a7a"/>
  </linearGradient>
  <linearGradient id="ilower" x1="0" y1="430" x2="0" y2="715" gradientUnits="userSpaceOnUse">
    <stop offset="0" stop-color="#2f9bff" stop-opacity="0"/><stop offset="1" stop-color="#2aa6ff" stop-opacity=".95"/>
  </linearGradient>
  <linearGradient id="igloss" x1="0" y1="5" x2="0" y2="360" gradientUnits="userSpaceOnUse">
    <stop offset="0" stop-color="#fff" stop-opacity=".42"/><stop offset="1" stop-color="#fff" stop-opacity="0"/>
  </linearGradient>
  <linearGradient id="irim" x1="880" y1="5" x2="160" y2="715" gradientUnits="userSpaceOnUse">
    <stop offset="0" stop-color="#ffb04a"/><stop offset=".3" stop-color="#ff5fa0"/><stop offset=".62" stop-color="#8a5cff"/><stop offset="1" stop-color="#38c8ff"/>
  </linearGradient>
  <linearGradient id="icounter" x1="370" y1="125" x2="725" y2="515" gradientUnits="userSpaceOnUse">
    <stop offset="0" stop-color="#2a1a8f"/><stop offset="1" stop-color="#7b2fcf"/>
  </linearGradient>
  <linearGradient id="iplay" x1="440" y1="215" x2="640" y2="465" gradientUnits="userSpaceOnUse">
    <stop offset="0" stop-color="#ff4f6d"/><stop offset=".55" stop-color="#e440a4"/><stop offset="1" stop-color="#7d3cf0"/>
  </linearGradient>
  <linearGradient id="istrip" x1="-570" y1="0" x2="570" y2="0" gradientUnits="userSpaceOnUse">
    <stop offset="0" stop-color="#ff8f3a"/><stop offset=".16" stop-color="#e440a4"/><stop offset=".42" stop-color="#6f4dff"/><stop offset=".62" stop-color="#38b6ff"/><stop offset=".84" stop-color="#8a5cff"/><stop offset="1" stop-color="#ff8f3a"/>
  </linearGradient>
  <linearGradient id="istripedge" x1="-570" y1="0" x2="570" y2="0" gradientUnits="userSpaceOnUse">
    <stop offset="0" stop-color="#ffd08a"/><stop offset=".3" stop-color="#ff86c8"/><stop offset=".6" stop-color="#9fe6ff"/><stop offset="1" stop-color="#ffd08a"/>
  </linearGradient>
  <mask id="iholes" maskUnits="userSpaceOnUse" x="-700" y="-400" width="1400" height="800">
    <rect x="-700" y="-400" width="1400" height="800" fill="#fff"/>
    <path d="M-541.0 -8.0A541 194 0 1 0 541.0 -8.0A541 194 0 1 0 -541.0 -8.0Z" fill="none" stroke="#000" stroke-width="21" stroke-dasharray="30 24"/><path d="M-521.0 -26.0A521 166 0 1 0 521.0 -26.0A521 166 0 1 0 -521.0 -26.0Z" fill="none" stroke="#000" stroke-width="17" stroke-dasharray="26 28" stroke-dashoffset="14"/>
  </mask>
  <clipPath id="ifront"><rect x="-700" y="-2" width="1400" height="500"/></clipPath></defs>
<path d="M175 5H560C770 5 880 150 880 360C880 570 770 715 560 715H175Q160 715 160 700V20Q160 5 175 5ZM370 125H520C660 125 725 230 725 320C725 410 660 515 520 515H370Z" fill-rule="evenodd" fill="url(#ibody)"/>
<path d="M175 5H560C770 5 880 150 880 360C880 570 770 715 560 715H175Q160 715 160 700V20Q160 5 175 5ZM370 125H520C660 125 725 230 725 320C725 410 660 515 520 515H370Z" fill-rule="evenodd" fill="url(#ilower)"/>
<path d="M370 125H520C660 125 725 230 725 320C725 410 660 515 520 515H370Z" fill="url(#icounter)"/>
<path d="M175 5H560C770 5 880 150 880 360C880 570 770 715 560 715H175Q160 715 160 700V20Q160 5 175 5Z" fill="none" stroke="url(#irim)" stroke-width="22" stroke-linejoin="round"/>
<path d="M440 215L440 465L640 340Z" fill="url(#iplay)" stroke="url(#iplay)" stroke-width="34" stroke-linejoin="round"/>
</svg>
